<svg width="400" height="225" viewBox="0 0 400 225" fill="none" xmlns="http://www.w3.org/2000/svg">
  <rect width="400" height="225" fill="#1E1E2E" />
  <rect x="20" y="20" width="360" height="185" rx="10" fill="#2A2A3A" stroke="#FFC107" stroke-width="2" />
  
  <!-- Honey pot -->
  <path d="M200 150 C250 150 280 130 280 100 C280 70 250 50 200 50 C150 50 120 70 120 100 C120 130 150 150 200 150 Z" fill="#FFC107" />
  <path d="M200 150 C150 150 120 130 120 100 C120 70 150 50 200 50" stroke="#FFA000" stroke-width="4" />
  <path d="M200 150 C250 150 280 130 280 100 C280 70 250 50 200 50" stroke="#FFE082" stroke-width="4" />
  
  <!-- Honey dipper -->
  <rect x="220" y="40" width="10" height="80" rx="5" fill="#795548" transform="rotate(30 220 40)" />
  <path d="M240 30 L260 20 L270 40 L250 50 Z" fill="#5D4037" />
  
  <!-- Honey drops -->
  <path d="M190 120 C195 125 195 130 190 135 C185 140 180 140 175 135 C170 130 170 125 175 120 C180 115 185 115 190 120 Z" fill="#FFC107" />
  <path d="M210 110 C215 115 215 120 210 125 C205 130 200 130 195 125 C190 120 190 115 195 110 C200 105 205 105 210 110 Z" fill="#FFC107" />
  <path d="M170 110 C175 115 175 120 170 125 C165 130 160 130 155 125 C150 120 150 115 155 110 C160 105 165 105 170 110 Z" fill="#FFC107" />
  
  <text x="200" y="30" font-family="Arial" font-size="24" font-weight="bold" fill="white" text-anchor="middle">HONEY CLICKER</text>
  <text x="200" y="190" font-family="Arial" font-size="14" fill="#FFC107" text-anchor="middle">CLICK TO EARN HONEY</text>
</svg>
